<svg width="58" height="58" viewBox="0 0 58 58" fill="none" xmlns="http://www.w3.org/2000/svg">
<path fill-rule="evenodd" clip-rule="evenodd" d="M53.041 8.60791L51.9585 41.0834H51.6472C50.0122 41.0834 49.1947 41.0834 48.4596 40.7789C47.7245 40.4744 47.1465 39.8963 45.9904 38.7402L41.4953 34.2451C40.1619 32.9118 39.4953 32.2451 38.6668 32.2451C37.8384 32.2451 37.1717 32.9118 35.8384 34.2451L32.4144 37.6691L32.4144 37.6692C30.9613 39.1222 30.2348 39.8487 29.6175 39.593C29.0002 39.3373 29.0002 38.3079 29.0002 36.2489V53.1667H45.1668C48.9381 53.1667 50.8237 53.1667 51.9953 51.9951C53.1668 50.8235 53.1668 48.9379 53.1668 45.1667V12.8334C53.1668 11.0408 53.1668 9.67424 53.041 8.60791ZM26.4623 29C25.4073 28.6407 23.9361 28.4936 21.7962 28.2796L12.0375 27.3037C8.61374 26.9614 6.90188 26.7902 5.86769 25.6474C4.8335 24.5047 4.8335 22.7843 4.8335 19.3435V29H26.4623Z" fill="#39629C"/>
<path d="M5.8335 12.8333C5.8335 10.9194 5.83562 9.58461 5.97103 8.57747C6.10256 7.59911 6.34316 7.08101 6.71218 6.71199C7.08119 6.34298 7.59929 6.10238 8.57766 5.97084C9.58479 5.83544 10.9196 5.83331 12.8335 5.83331H45.1668C47.0807 5.83331 48.4155 5.83544 49.4227 5.97084C50.401 6.10238 50.9191 6.34298 51.2882 6.71199C51.6572 7.08101 51.8978 7.59911 52.0293 8.57747C52.1647 9.58461 52.1668 10.9194 52.1668 12.8333V45.1667C52.1668 47.0805 52.1647 48.4154 52.0293 49.4225C51.8978 50.4009 51.6572 50.9189 51.2882 51.288C50.9191 51.657 50.401 51.8976 49.4227 52.0291C48.4155 52.1645 47.0807 52.1666 45.1668 52.1666H30.0002V31L30.0002 30.9456C30.0003 30.5215 30.0003 30.1094 29.9546 29.7695C29.9031 29.3863 29.7776 28.949 29.4144 28.5858C29.0512 28.2226 28.6139 28.097 28.2307 28.0455C27.8908 27.9998 27.4786 27.9999 27.0546 28L27.0002 28H5.8335V12.8333Z" stroke="#39629C" stroke-width="2"/>
<ellipse cx="38.6668" cy="19.3333" rx="4.83333" ry="4.83333" fill="#39629C"/>
<path d="M19.3335 38.6667V37.6667H20.3335V38.6667H19.3335ZM7.87486 49.1142C7.44359 49.4592 6.8143 49.3893 6.46929 48.958C6.12428 48.5268 6.19421 47.8975 6.62547 47.5525L7.87486 49.1142ZM18.3335 50.75V38.6667H20.3335V50.75H18.3335ZM19.3335 39.6667H7.25016V37.6667H19.3335V39.6667ZM19.9582 39.4476L7.87486 49.1142L6.62547 47.5525L18.7088 37.8858L19.9582 39.4476Z" fill="#39629C"/>
</svg>
