<svg width="61" height="23" viewBox="0 0 61 23" fill="none" xmlns="http://www.w3.org/2000/svg">
<path d="M4.13281 19.3281C3.6224 19.2812 3.19792 19.1198 2.85938 18.8438C2.51042 18.5729 2.25781 18.2214 2.10156 17.7891C1.94531 17.3672 1.86719 16.875 1.86719 16.3125C1.86719 15.776 1.95573 15.1797 2.13281 14.5234C2.29948 13.9141 2.54688 13.2708 2.875 12.5938C3.20312 11.9427 3.60677 11.3047 4.08594 10.6797C4.16927 10.5807 4.23698 10.5182 4.28906 10.4922C4.3151 10.4818 4.33854 10.4766 4.35938 10.4766C4.375 10.4766 4.38802 10.4818 4.39844 10.4922C4.41406 10.513 4.42188 10.5391 4.42188 10.5703C4.42188 10.5859 4.41927 10.6068 4.41406 10.6328C4.39844 10.7057 4.35156 10.7891 4.27344 10.8828C4.07552 11.1589 3.90104 11.4349 3.75 11.7109C3.55208 12.0495 3.38021 12.3958 3.23438 12.75C3.08854 13.0729 2.94271 13.4557 2.79688 13.8984C2.68229 14.2734 2.60156 14.6641 2.55469 15.0703C2.51823 15.2786 2.5 15.4948 2.5 15.7188C2.5 15.8646 2.50781 16.0104 2.52344 16.1562C2.57031 16.5104 2.66667 16.8047 2.8125 17.0391C2.94271 17.2839 3.16146 17.4922 3.46875 17.6641C3.76042 17.8203 4.13281 17.8984 4.58594 17.8984C4.79427 17.8984 5.05729 17.8307 5.375 17.6953C5.6875 17.5703 5.97135 17.4089 6.22656 17.2109C6.47135 17.0234 6.69531 16.7969 6.89844 16.5312C7.08073 16.2656 7.17188 16.0156 7.17188 15.7812C7.17188 15.6458 7.11719 15.5521 7.00781 15.5C6.85156 15.4427 6.71094 15.401 6.58594 15.375C6.0026 15.25 5.63542 15.1484 5.48438 15.0703C5.29688 14.9505 5.15625 14.8099 5.0625 14.6484C4.95312 14.4766 4.89844 14.2214 4.89844 13.8828C4.89844 13.6745 4.91667 13.4479 4.95312 13.2031C5.03646 12.8646 5.11458 12.5677 5.1875 12.3125C5.26042 12.1042 5.39062 11.7839 5.57812 11.3516C5.75521 10.9766 5.92969 10.6745 6.10156 10.4453C6.3151 10.1693 6.53385 9.94271 6.75781 9.76562C7.01302 9.57292 7.27604 9.46875 7.54688 9.45312C7.56771 9.44792 7.58854 9.44531 7.60938 9.44531C7.71875 9.44531 7.81771 9.47917 7.90625 9.54688C8 9.64062 8.07812 9.75 8.14062 9.875C8.20833 10.026 8.2474 10.1745 8.25781 10.3203C8.27865 10.4141 8.28906 10.5078 8.28906 10.6016C8.28906 10.6641 8.28385 10.7266 8.27344 10.7891C8.26302 10.8984 8.22656 11.013 8.16406 11.1328C8.1224 11.2266 8.05729 11.2734 7.96875 11.2734C7.90625 11.2734 7.84375 11.2578 7.78125 11.2266C7.73958 11.2057 7.67708 11.1641 7.59375 11.1016C7.57292 11.0911 7.54167 11.0729 7.5 11.0469C7.45833 11.0208 7.42708 11.0026 7.40625 10.9922C7.32812 10.9609 7.26562 10.9453 7.21875 10.9453C7 10.9453 6.79427 11.013 6.60156 11.1484C6.41406 11.2786 6.23177 11.4557 6.05469 11.6797C5.90365 11.8724 5.77083 12.0938 5.65625 12.3438C5.5625 12.5781 5.51562 12.7917 5.51562 12.9844C5.51562 13.2552 5.56771 13.4401 5.67188 13.5391C5.76042 13.6328 5.89323 13.7057 6.07031 13.7578C6.22656 13.7891 6.39844 13.8203 6.58594 13.8516C6.78385 13.888 6.95312 13.9557 7.09375 14.0547C7.25 14.1484 7.38542 14.3203 7.5 14.5703C7.60938 14.8047 7.67188 15.1615 7.6875 15.6406C7.6875 16.1667 7.59375 16.6536 7.40625 17.1016C7.21875 17.5651 6.96615 17.9557 6.64844 18.2734C6.33594 18.5964 5.95833 18.8542 5.51562 19.0469C5.08333 19.2344 4.6224 19.3281 4.13281 19.3281ZM4 21.9375C4 21.776 4.02865 21.6042 4.08594 21.4219C4.1276 21.1458 4.14844 20.9479 4.14844 20.8281C4.20573 20.8281 4.32292 20.7969 4.5 20.7344C4.56771 20.724 4.67188 20.7031 4.8125 20.6719C4.94271 20.6458 5.05208 20.6276 5.14062 20.6172C5.4375 20.5286 5.63542 20.4792 5.73438 20.4688C5.92188 20.4062 6.04427 20.375 6.10156 20.375C6.1224 20.3542 6.14323 20.3438 6.16406 20.3438C6.1849 20.3438 6.20312 20.3542 6.21875 20.375C6.21875 20.3906 6.23698 20.4401 6.27344 20.5234C6.27344 20.6016 6.28646 20.6615 6.3125 20.7031V20.8281C6.3125 20.9635 6.29167 21.1536 6.25 21.3984C6.22396 21.5495 6.16406 21.6901 6.07031 21.8203C6.0026 21.8828 5.90365 21.9401 5.77344 21.9922C5.6224 22.0703 5.46875 22.1198 5.3125 22.1406C5.19792 22.1875 5.01823 22.2292 4.77344 22.2656C4.49219 22.3021 4.3125 22.3203 4.23438 22.3203H4.02344C3.96615 22.3203 3.9375 22.3021 3.9375 22.2656V22.1406L3.92969 22.1562C3.92969 22.1458 3.95312 22.0729 4 21.9375ZM11.8516 12.0859C12.3724 11.9141 12.6641 12.1328 12.7266 12.7422C12.7474 12.9245 12.7474 13.1562 12.7266 13.4375C12.7057 13.6927 12.6953 13.8281 12.6953 13.8438C12.6953 13.651 12.599 13.487 12.4062 13.3516C12.2188 13.2214 12.0339 13.1771 11.8516 13.2188C11.8568 13.0312 11.8594 12.8411 11.8594 12.6484C11.8594 12.2734 11.8568 12.0859 11.8516 12.0859ZM12.0391 12.0312C12.2682 12.0312 12.4115 12.1953 12.4688 12.5234V13.0703C11.875 13.4036 11.5729 13.6745 11.5625 13.8828C11.4219 14.1068 11.0807 15.0547 10.5391 16.7266C10.1589 17.9818 9.53906 18.8568 8.67969 19.3516C7.5651 19.8568 6.38542 20.1094 5.14062 20.1094H4.66406L0.351562 20.1016C3.23177 19.8932 5.34115 19.612 6.67969 19.2578C8.39844 18.5911 9.59635 17.4922 10.2734 15.9609C10.5599 15.3151 10.8464 14.3125 11.1328 12.9531C11.4349 12.3385 11.737 12.0312 12.0391 12.0312ZM15.4766 0.0390625H15.5234C15.5234 0.309896 15.8724 1.19792 16.5703 2.70312C16.888 3.42188 17.0469 4.02083 17.0469 4.5V4.75C17.0469 6.42188 16.7135 7.83854 16.0469 9H16.0234C15.9714 8.85938 15.8932 8.70312 15.7891 8.53125C16.4453 7.14583 16.7734 6.09635 16.7734 5.38281V4.92969C16.7734 4.2474 16.401 3.21615 15.6562 1.83594C15.5677 1.60156 15.5234 1.42708 15.5234 1.3125H15.5C15.5 1.68229 15.1667 2.46354 14.5 3.65625C14.3177 4.14583 14.2266 4.53906 14.2266 4.83594C14.2266 5.67969 14.7031 6.85677 15.6562 8.36719C16.099 9.1901 16.3203 9.85677 16.3203 10.3672C16.3047 10.4818 16.2969 10.6094 16.2969 10.75V10.7969C16.2969 10.8281 16.2812 10.8438 16.25 10.8438L16.2266 10.7969V10.7266C16.2266 10.2057 15.7188 9.07031 14.7031 7.32031C14.25 6.35156 14.0234 5.47135 14.0234 4.67969C14.0234 3.79948 14.3932 2.66146 15.1328 1.26562C15.362 0.630208 15.4766 0.221354 15.4766 0.0390625ZM17.2344 15.9766C17.125 15.9922 17.0182 16 16.9141 16C16.2214 16 15.5833 15.6276 15 14.8828C14.724 14.3568 14.5859 13.7422 14.5859 13.0391V12.9922C14.5859 11.862 14.901 10.5417 15.5312 9.03125H15.5547C15.5964 9.03125 15.6875 9.20833 15.8281 9.5625L15.3594 10.7578C15.1354 11.4297 15.0234 11.9401 15.0234 12.2891V12.5312C15.0234 13.4375 15.5078 14.0677 16.4766 14.4219C16.7214 14.5052 16.9766 14.5469 17.2422 14.5469L17.2344 15.9766ZM21.9922 13.4375C21.862 13.6146 21.724 13.7604 21.5781 13.875C21.3958 14 21.2552 14.0833 21.1562 14.125C21.0365 14.1927 20.8906 14.2448 20.7188 14.2812C20.5365 14.4792 20.3333 14.638 20.1094 14.7578C19.8958 14.8672 19.7109 14.9427 19.5547 14.9844C19.4349 15.0104 19.3203 15.0234 19.2109 15.0234C19.138 15.0234 19.0677 15.0182 19 15.0078C18.8906 15.1641 18.7552 15.3047 18.5938 15.4297C18.401 15.5703 18.2422 15.6745 18.1172 15.7422C17.9609 15.8307 17.8021 15.8958 17.6406 15.9375C17.4427 15.9792 17.3073 16 17.2344 16V14.5312C17.3177 14.5312 17.4193 14.5156 17.5391 14.4844C17.6953 14.4531 17.8229 14.4141 17.9219 14.3672C18.0417 14.3255 18.1719 14.2708 18.3125 14.2031C18.4271 14.1354 18.5208 14.0651 18.5938 13.9922C18.6979 13.8932 18.763 13.7995 18.7891 13.7109C18.8203 13.6484 18.8464 13.5573 18.8672 13.4375C18.8776 13.3594 18.888 13.2812 18.8984 13.2031C18.8984 13.1406 18.9089 13.0703 18.9297 12.9922C18.9401 12.9401 18.9688 12.9062 19.0156 12.8906C19.0625 12.8906 19.0938 12.9245 19.1094 12.9922C19.1198 13.0495 19.1328 13.125 19.1484 13.2188C19.1693 13.3229 19.1849 13.4062 19.1953 13.4688L19.2031 13.625C19.2083 13.6979 19.2109 13.75 19.2109 13.7812C19.5078 13.7708 19.7318 13.6979 19.8828 13.5625C20.0495 13.4427 20.1693 13.2917 20.2422 13.1094C20.3255 12.9323 20.3802 12.7526 20.4062 12.5703C20.4219 12.4193 20.4479 12.25 20.4844 12.0625C20.4948 12.0104 20.5234 11.9766 20.5703 11.9609C20.6224 11.9609 20.6641 11.9948 20.6953 12.0625C20.7318 12.2448 20.7552 12.3958 20.7656 12.5156C20.776 12.5938 20.7812 12.6719 20.7812 12.75C20.7812 12.8229 20.776 12.8932 20.7656 12.9609C20.9583 12.9193 21.1224 12.8411 21.2578 12.7266C21.388 12.5964 21.4792 12.4661 21.5312 12.3359C21.5833 12.2109 21.6276 12.0703 21.6641 11.9141C21.6797 11.7839 21.7057 11.6536 21.7422 11.5234C21.7422 11.4766 21.7656 11.4531 21.8125 11.4531C21.8229 11.4479 21.8307 11.4453 21.8359 11.4453C21.8672 11.4453 21.8958 11.4714 21.9219 11.5234C21.9427 11.5964 21.9609 11.7109 21.9766 11.8672L21.9922 13.4375ZM17.75 11.0391L17.7266 11.1328C17.7266 11.1224 17.7604 10.9557 17.8281 10.6328C17.8438 10.5339 17.8932 10.3047 17.9766 9.94531L17.9688 9.96094L18.2266 9.10938C18.3411 8.80729 18.4505 8.54688 18.5547 8.32812C18.7057 8.06771 18.8516 7.88021 18.9922 7.76562C19.138 7.63542 19.3021 7.57031 19.4844 7.57031H19.5469C19.7344 7.58073 19.888 7.65365 20.0078 7.78906C20.1276 7.90885 20.2188 8.0599 20.2812 8.24219C20.3333 8.39844 20.3672 8.58854 20.3828 8.8125C20.3828 9.00521 20.3672 9.1849 20.3359 9.35156C20.3047 9.52344 20.2552 9.65625 20.1875 9.75C20.1354 9.83854 20.0807 9.88281 20.0234 9.88281H19.9922C19.9401 9.86719 19.901 9.82292 19.875 9.75C19.8177 9.60417 19.7839 9.52083 19.7734 9.5C19.7422 9.42708 19.6823 9.33594 19.5938 9.22656C19.5156 9.15365 19.401 9.10938 19.25 9.09375H19.2031C19.0729 9.09375 18.9531 9.14844 18.8438 9.25781C18.7448 9.35677 18.6458 9.50781 18.5469 9.71094C18.4583 9.88281 18.3828 10.0859 18.3203 10.3203C18.2943 10.3984 18.263 10.5026 18.2266 10.6328C18.1849 10.7734 18.1562 10.8698 18.1406 10.9219C18.099 11.099 18.0547 11.2526 18.0078 11.3828C17.9766 11.5026 17.9297 11.5625 17.8672 11.5625C17.7786 11.5312 17.7344 11.4609 17.7344 11.3516C17.7344 11.2005 17.7396 11.0964 17.75 11.0391ZM21.9219 12.5312C22.1979 12.5312 22.4245 12.4635 22.6016 12.3281C22.7526 12.1875 22.8776 11.9974 22.9766 11.7578C23.0547 11.5547 23.1198 11.3151 23.1719 11.0391C23.2083 10.7109 23.2318 10.474 23.2422 10.3281C23.2578 10.1458 23.2839 9.98177 23.3203 9.83594C23.3359 9.7474 23.3646 9.70312 23.4062 9.70312C23.4271 9.70312 23.4479 9.71094 23.4688 9.72656C23.625 9.85677 23.8099 9.9375 24.0234 9.96875C24.237 10 24.4375 10.0156 24.625 10.0156C24.6927 10.0156 24.7839 10.0182 24.8984 10.0234L25.1562 10.0312C25.3125 10.0312 25.4479 10.0703 25.5625 10.1484C25.6094 10.1953 25.638 10.2812 25.6484 10.4062C25.6589 10.4948 25.6641 10.6354 25.6641 10.8281C25.6536 10.9375 25.6276 11.0807 25.5859 11.2578C25.5391 11.3932 25.474 11.474 25.3906 11.5C25.3646 11.5208 25.2708 11.5312 25.1094 11.5312H24.6406C24.5938 11.526 24.5208 11.5208 24.4219 11.5156C24.3229 11.5104 24.2526 11.5052 24.2109 11.5L24.0391 11.4922L23.9375 11.4844C23.8438 11.5 23.7682 11.5651 23.7109 11.6797C23.6224 11.862 23.5573 12.013 23.5156 12.1328C23.4167 12.3724 23.3411 12.5625 23.2891 12.7031C23.2005 12.9167 23.0964 13.112 22.9766 13.2891C22.8724 13.4557 22.7266 13.6172 22.5391 13.7734C22.3724 13.9089 22.1667 13.9844 21.9219 14V12.5312ZM30.9141 19.1953C30.3359 19.1484 29.8802 18.9948 29.5469 18.7344C29.1875 18.4688 28.9193 18.1641 28.7422 17.8203C28.5495 17.487 28.4219 17.112 28.3594 16.6953C28.2969 16.3151 28.2656 15.9661 28.2656 15.6484C28.2656 15.1068 28.3568 14.5234 28.5391 13.8984C28.7057 13.3359 28.9297 12.7057 29.2109 12.0078C29.4922 11.3151 29.7708 10.6927 30.0469 10.1406C30.5156 9.13021 30.7839 8.54688 30.8516 8.39062C30.8516 8.38542 30.9141 8.21354 31.0391 7.875C31.0911 7.66667 31.125 7.44792 31.1406 7.21875C31.1458 7.18229 31.1484 7.14844 31.1484 7.11719C31.1484 6.95573 31.1172 6.8125 31.0547 6.6875C30.9766 6.53125 30.8229 6.45312 30.5938 6.45312C30.526 6.45312 30.4297 6.47396 30.3047 6.51562L30.0781 6.65625C30.026 6.69792 29.9557 6.76302 29.8672 6.85156C29.8151 6.89323 29.7292 6.95312 29.6094 7.03125C29.5781 7.05729 29.5443 7.07031 29.5078 7.07031C29.487 7.07031 29.4635 7.0625 29.4375 7.04688C29.3906 7.01042 29.3672 6.94531 29.3672 6.85156C29.3828 6.60156 29.4323 6.3776 29.5156 6.17969C29.6094 5.96094 29.7266 5.75781 29.8672 5.57031C30.0391 5.3776 30.2109 5.23698 30.3828 5.14844C30.5495 5.03385 30.7578 4.97656 31.0078 4.97656C31.1849 4.97656 31.3255 5.02344 31.4297 5.11719C31.5339 5.1901 31.6276 5.30208 31.7109 5.45312C31.763 5.58854 31.7969 5.74479 31.8125 5.92188C31.8333 6.14583 31.8438 6.3099 31.8438 6.41406C31.8438 7.01302 31.7422 7.625 31.5391 8.25C31.3151 8.91146 31.0677 9.52083 30.7969 10.0781C30.6042 10.4844 30.3047 11.0938 29.8984 11.9062C29.5807 12.4896 29.3203 13.0911 29.1172 13.7109C29.0859 13.7943 29.0521 13.9271 29.0156 14.1094C28.974 14.2865 28.9479 14.4349 28.9375 14.5547C28.9167 14.7526 28.901 14.8984 28.8906 14.9922C28.8802 15.0859 28.875 15.1979 28.875 15.3281C28.875 15.6302 28.9375 15.9193 29.0625 16.1953C29.1875 16.4766 29.3542 16.7135 29.5625 16.9062C29.7969 17.125 30.0339 17.2891 30.2734 17.3984C30.5495 17.5182 30.8359 17.5781 31.1328 17.5781C31.4141 17.5781 31.6771 17.5026 31.9219 17.3516C32.2031 17.1849 32.4245 16.9922 32.5859 16.7734C32.7734 16.5599 32.9323 16.3047 33.0625 16.0078C33.1719 15.7057 33.2266 15.4271 33.2266 15.1719C33.2266 14.9427 33.1667 14.737 33.0469 14.5547C32.9167 14.3776 32.763 14.2292 32.5859 14.1094C32.388 13.9948 32.1927 13.9089 32 13.8516C31.7708 13.7891 31.5573 13.7578 31.3594 13.7578C31.3177 13.7526 31.2734 13.75 31.2266 13.75C31.0443 13.75 30.875 13.7786 30.7188 13.8359C30.4948 13.9245 30.3281 14.0104 30.2188 14.0938C30.0469 14.2135 29.9089 14.3255 29.8047 14.4297L29.4531 14.7812C29.4115 14.8125 29.3828 14.8281 29.3672 14.8281C29.3464 14.8073 29.3359 14.7865 29.3359 14.7656V14.5625C29.362 14.3229 29.4323 14.0547 29.5469 13.7578C29.6562 13.4766 29.7969 13.2344 29.9688 13.0312C30.1719 12.7969 30.3802 12.6198 30.5938 12.5C30.8281 12.3646 31.099 12.2969 31.4062 12.2969C31.8333 12.2969 32.1875 12.3646 32.4688 12.5C32.7604 12.6458 33.0026 12.8385 33.1953 13.0781C33.388 13.3281 33.5208 13.6172 33.5938 13.9453C33.6875 14.2786 33.7344 14.6328 33.7344 15.0078C33.7344 15.4453 33.6875 15.9062 33.5938 16.3906C33.5052 16.8542 33.349 17.3073 33.125 17.75C32.9115 18.1615 32.6276 18.5052 32.2734 18.7812C31.9036 19.0573 31.4505 19.1953 30.9141 19.1953ZM30.6172 16.3047V16.2891C30.6172 16.2682 30.6224 16.2083 30.6328 16.1094C30.6745 15.9271 30.7031 15.7786 30.7188 15.6641C30.7812 15.4609 30.8281 15.3151 30.8594 15.2266C30.9062 15.0964 30.9427 15.0312 30.9688 15.0312C31.0052 15.0312 31.0859 15.0443 31.2109 15.0703C31.2526 15.0807 31.3776 15.1224 31.5859 15.1953C31.6797 15.2266 31.7969 15.2812 31.9375 15.3594C32.0417 15.4219 32.0938 15.4844 32.0938 15.5469C32.0938 15.5781 32.0833 15.6849 32.0625 15.8672C32.0417 15.9557 32 16.0911 31.9375 16.2734C31.8802 16.4349 31.8359 16.5469 31.8047 16.6094C31.7578 16.6927 31.7214 16.7344 31.6953 16.7344H31.6797C31.5651 16.6875 31.3932 16.6094 31.1641 16.5C30.8776 16.3906 30.6953 16.3255 30.6172 16.3047ZM36.1641 0.0390625H36.2109C36.2109 0.309896 36.5599 1.19792 37.2578 2.70312C37.5755 3.42188 37.7344 4.02083 37.7344 4.5V4.75C37.7344 6.42188 37.401 7.83854 36.7344 9H36.7109C36.6589 8.85938 36.5807 8.70312 36.4766 8.53125C37.1328 7.14583 37.4609 6.09635 37.4609 5.38281V4.92969C37.4609 4.2474 37.0885 3.21615 36.3438 1.83594C36.2552 1.60156 36.2109 1.42708 36.2109 1.3125H36.1875C36.1875 1.68229 35.8542 2.46354 35.1875 3.65625C35.0052 4.14583 34.9141 4.53906 34.9141 4.83594C34.9141 5.67969 35.3906 6.85677 36.3438 8.36719C36.7865 9.1901 37.0078 9.85677 37.0078 10.3672C36.9922 10.4818 36.9844 10.6094 36.9844 10.75V10.7969C36.9844 10.8281 36.9688 10.8438 36.9375 10.8438L36.9141 10.7969V10.7266C36.9141 10.2057 36.4062 9.07031 35.3906 7.32031C34.9375 6.35156 34.7109 5.47135 34.7109 4.67969C34.7109 3.79948 35.0807 2.66146 35.8203 1.26562C36.0495 0.630208 36.1641 0.221354 36.1641 0.0390625ZM37.9219 15.9766C37.8125 15.9922 37.7057 16 37.6016 16C36.9089 16 36.2708 15.6276 35.6875 14.8828C35.4115 14.3568 35.2734 13.7422 35.2734 13.0391V12.9922C35.2734 11.862 35.5885 10.5417 36.2188 9.03125H36.2422C36.2839 9.03125 36.375 9.20833 36.5156 9.5625L36.0469 10.7578C35.8229 11.4297 35.7109 11.9401 35.7109 12.2891V12.5312C35.7109 13.4375 36.1953 14.0677 37.1641 14.4219C37.4089 14.5052 37.6641 14.5469 37.9297 14.5469L37.9219 15.9766ZM37.9219 14.5312C38.026 14.5312 38.1562 14.4922 38.3125 14.4141C38.4271 14.362 38.5781 14.263 38.7656 14.1172C38.9167 13.9661 39.0365 13.8203 39.125 13.6797C39.224 13.4974 39.2734 13.3385 39.2734 13.2031V13.1641C39.2734 13.0234 39.2188 12.8828 39.1094 12.7422C38.974 12.5859 38.7734 12.4609 38.5078 12.3672C38.4505 12.4922 38.4089 12.5677 38.3828 12.5938C38.362 12.6198 38.349 12.6328 38.3438 12.6328C38.3385 12.6328 38.3359 12.6276 38.3359 12.6172C38.3359 12.6068 38.3385 12.5911 38.3438 12.5703C38.349 12.4714 38.3542 12.362 38.3594 12.2422C38.3802 11.987 38.3984 11.7839 38.4141 11.6328C38.4297 11.4557 38.4557 11.2552 38.4922 11.0312C38.5234 10.8542 38.5651 10.7656 38.6172 10.7656C38.6589 10.7604 38.7005 10.7578 38.7422 10.7578C38.9609 10.7578 39.1484 10.8594 39.3047 11.0625C39.4818 11.3073 39.6042 11.6068 39.6719 11.9609C39.7344 12.2474 39.7656 12.5417 39.7656 12.8438C39.7656 12.9583 39.7604 13.0729 39.75 13.1875C39.7031 13.6458 39.6146 14.0651 39.4844 14.4453C39.3385 14.8411 39.1328 15.1849 38.8672 15.4766C38.6068 15.7682 38.2917 15.9427 37.9219 16V14.5312ZM37.8281 18.7266C37.849 18.5703 37.8802 18.401 37.9219 18.2188C37.9427 18.0781 37.9609 17.8776 37.9766 17.6172C38.013 17.6172 38.138 17.5911 38.3516 17.5391C38.612 17.4818 38.8177 17.4375 38.9688 17.4062C39.0417 17.3906 39.1432 17.3672 39.2734 17.3359C39.4141 17.2943 39.5104 17.2682 39.5625 17.2578C39.7656 17.2057 39.8854 17.1719 39.9219 17.1562C39.9375 17.151 39.9531 17.1484 39.9688 17.1484C39.9948 17.1484 40.0208 17.1589 40.0469 17.1797C40.0781 17.2526 40.0964 17.2995 40.1016 17.3203C40.1068 17.3411 40.112 17.3698 40.1172 17.4062C40.1224 17.4479 40.1276 17.4792 40.1328 17.5V17.6328C40.1328 17.8411 40.112 18.026 40.0703 18.1875C40.0443 18.349 39.9896 18.487 39.9062 18.6016C39.8542 18.6589 39.7552 18.7188 39.6094 18.7812C39.4635 18.849 39.3099 18.9036 39.1484 18.9453C39.0234 18.9818 38.8438 19.0182 38.6094 19.0547C38.4844 19.0807 38.3047 19.1042 38.0703 19.125H37.8438C37.8021 19.1146 37.7812 19.0964 37.7812 19.0703V18.9453C37.7969 18.888 37.8125 18.8151 37.8281 18.7266ZM43.5703 12.0859C44.0911 11.9141 44.3828 12.1328 44.4453 12.7422C44.4661 12.9245 44.4661 13.1562 44.4453 13.4375C44.4245 13.6927 44.4141 13.8281 44.4141 13.8438C44.4141 13.651 44.3177 13.487 44.125 13.3516C43.9375 13.2214 43.7526 13.1771 43.5703 13.2188C43.5755 13.0312 43.5781 12.8411 43.5781 12.6484C43.5781 12.2734 43.5755 12.0859 43.5703 12.0859ZM43.7578 12.0312C43.987 12.0312 44.1302 12.1953 44.1875 12.5234V13.0703C43.5938 13.4036 43.2917 13.6745 43.2812 13.8828C43.1406 14.1068 42.7995 15.0547 42.2578 16.7266C41.8776 17.9818 41.2578 18.8568 40.3984 19.3516C39.2839 19.8568 38.1042 20.1094 36.8594 20.1094H36.3828L32.0703 20.1016C34.9505 19.8932 37.0599 19.612 38.3984 19.2578C40.1172 18.5911 41.3151 17.4922 41.9922 15.9609C42.2786 15.3151 42.5651 14.3125 42.8516 12.9531C43.1536 12.3385 43.4557 12.0312 43.7578 12.0312ZM50.6172 12.0859C51.138 11.9141 51.4297 12.1328 51.4922 12.7422C51.513 12.9245 51.513 13.1562 51.4922 13.4375C51.4714 13.6927 51.4609 13.8281 51.4609 13.8438C51.4609 13.651 51.3646 13.487 51.1719 13.3516C50.9844 13.2214 50.7995 13.1771 50.6172 13.2188C50.6224 13.0312 50.625 12.8411 50.625 12.6484C50.625 12.2734 50.6224 12.0859 50.6172 12.0859ZM50.8047 12.0312C51.0339 12.0312 51.1771 12.1953 51.2344 12.5234V13.0703C50.6406 13.4036 50.3385 13.6745 50.3281 13.8828C50.1875 14.1068 49.8464 15.0547 49.3047 16.7266C48.9245 17.9818 48.3047 18.8568 47.4453 19.3516C46.3307 19.8568 45.151 20.1094 43.9062 20.1094H43.4297L39.1172 20.1016C41.9974 19.8932 44.1068 19.612 45.4453 19.2578C47.1641 18.5911 48.362 17.4922 49.0391 15.9609C49.3255 15.3151 49.612 14.3125 49.8984 12.9531C50.2005 12.3385 50.5026 12.0312 50.8047 12.0312ZM58.6719 14.5391C58.776 14.5391 58.9062 14.5 59.0625 14.4219C59.1823 14.3646 59.3333 14.263 59.5156 14.1172C59.6667 13.9661 59.7865 13.8203 59.875 13.6797C59.974 13.4974 60.0234 13.3385 60.0234 13.2031V13.1484C60.0234 13.013 59.9688 12.875 59.8594 12.7344C59.724 12.5833 59.5234 12.4583 59.2578 12.3594C59.2109 12.4896 59.1719 12.5703 59.1406 12.6016C59.1198 12.6224 59.1042 12.6328 59.0938 12.6328C59.0885 12.6328 59.0859 12.625 59.0859 12.6094C59.0859 12.599 59.0885 12.5807 59.0938 12.5547C59.0938 12.4661 59.099 12.362 59.1094 12.2422C59.1302 11.9818 59.151 11.776 59.1719 11.625C59.1823 11.4479 59.2057 11.2474 59.2422 11.0234C59.2734 10.8411 59.3151 10.75 59.3672 10.75C59.4089 10.7448 59.4479 10.7422 59.4844 10.7422C59.7083 10.7422 59.8984 10.8464 60.0547 11.0547C60.237 11.2995 60.362 11.599 60.4297 11.9531C60.487 12.25 60.5156 12.5547 60.5156 12.8672C60.5156 12.9714 60.513 13.0781 60.5078 13.1875C60.4609 13.6458 60.3698 14.0651 60.2344 14.4453C60.0885 14.8464 59.8828 15.1927 59.6172 15.4844C59.3568 15.776 59.0417 15.9505 58.6719 16.0078C58.4844 15.9974 58.3307 15.9375 58.2109 15.8281C58.1016 15.75 58.0052 15.6354 57.9219 15.4844C57.8333 15.2656 57.7786 15.1146 57.7578 15.0312C57.7005 14.724 57.6693 14.5703 57.6641 14.5703V14.6016C57.6328 14.4557 57.599 14.3438 57.5625 14.2656C57.5312 14.1771 57.4818 14.1328 57.4141 14.1328C57.2786 14.1328 57.1667 14.2578 57.0781 14.5078C56.9792 14.8307 56.901 15.1458 56.8438 15.4531C56.7656 15.8281 56.6745 16.2344 56.5703 16.6719C56.4557 17.151 56.3255 17.5677 56.1797 17.9219C56.0391 18.2917 55.8385 18.6224 55.5781 18.9141C55.3385 19.1797 55.0339 19.3281 54.6641 19.3594C54.5807 19.3698 54.5 19.375 54.4219 19.375C54.1719 19.375 53.9427 19.3255 53.7344 19.2266C53.4792 19.0859 53.2786 18.8958 53.1328 18.6562C52.9818 18.4167 52.875 18.1302 52.8125 17.7969C52.7448 17.4323 52.7109 17.0885 52.7109 16.7656C52.7109 16.3646 52.7292 15.9974 52.7656 15.6641C52.8073 15.3359 52.8646 14.9922 52.9375 14.6328C53 14.3568 53.0729 14.0599 53.1562 13.7422C53.2552 13.4609 53.3359 13.2656 53.3984 13.1562C53.4349 13.0625 53.4844 12.9714 53.5469 12.8828C53.6042 12.8464 53.6484 12.8281 53.6797 12.8281H53.7031C53.7396 12.849 53.7578 12.8828 53.7578 12.9297C53.763 12.9453 53.7656 12.9635 53.7656 12.9844C53.7656 13.0312 53.75 13.0938 53.7188 13.1719C53.5469 13.5938 53.4193 14.0156 53.3359 14.4375C53.237 14.8646 53.1875 15.3099 53.1875 15.7734V15.9219C53.1875 16.2865 53.237 16.6406 53.3359 16.9844C53.4453 17.3646 53.6276 17.6667 53.8828 17.8906C54.0807 18.0104 54.2786 18.0703 54.4766 18.0703C54.5651 18.0703 54.651 18.0599 54.7344 18.0391C55.0417 17.9766 55.2943 17.8255 55.4922 17.5859C55.7005 17.2943 55.849 17.0104 55.9375 16.7344C56.0729 16.3125 56.1693 15.9661 56.2266 15.6953L56.4531 14.6172C56.5 14.3203 56.5703 14 56.6641 13.6562C56.763 13.3281 56.862 13.0911 56.9609 12.9453C57.0651 12.7682 57.2109 12.6797 57.3984 12.6797C57.5443 12.6797 57.6536 12.724 57.7266 12.8125C57.8151 12.9167 57.8802 13.026 57.9219 13.1406C57.9844 13.3229 58.026 13.4688 58.0469 13.5781C58.0781 13.7656 58.1172 13.9115 58.1641 14.0156C58.2109 14.151 58.2708 14.2708 58.3438 14.375C58.4219 14.4688 58.5312 14.5234 58.6719 14.5391ZM59.3672 18.375V18.3594C59.3672 18.3385 59.3724 18.2786 59.3828 18.1797C59.4245 17.9974 59.4557 17.8516 59.4766 17.7422C59.5339 17.5443 59.5781 17.3984 59.6094 17.3047C59.6562 17.1745 59.6927 17.1094 59.7188 17.1094C59.7552 17.1094 59.8333 17.125 59.9531 17.1562C59.9948 17.1667 60.1198 17.2083 60.3281 17.2812C60.4219 17.3073 60.5391 17.362 60.6797 17.4453C60.7786 17.5026 60.8281 17.5625 60.8281 17.625C60.8281 17.6562 60.8177 17.7604 60.7969 17.9375C60.776 18.0312 60.737 18.1667 60.6797 18.3438C60.6172 18.5052 60.5703 18.6172 60.5391 18.6797C60.4974 18.7578 60.4635 18.7969 60.4375 18.7969H60.4219C60.3073 18.75 60.138 18.6745 59.9141 18.5703C59.6276 18.4609 59.4453 18.3958 59.3672 18.375Z" fill="#39629C"/>
</svg>
