<svg width="19" height="20" viewBox="0 0 19 20" fill="none" xmlns="http://www.w3.org/2000/svg">
<path d="M16.3454 19.1489C15.8982 19.1489 15.5069 18.9705 15.1715 18.6137L0.525567 3.03291C-0.145241 2.31928 -0.145241 1.18937 0.525567 0.535219C1.19637 -0.178406 2.25849 -0.178406 2.87339 0.535219L17.5194 16.0566C18.1902 16.7702 18.1902 17.9001 17.5194 18.5542C17.184 18.9705 16.7367 19.1489 16.3454 19.1489Z" fill="#FF9626"/>
<path d="M1.69948 19.1489C1.25227 19.1489 0.86097 18.9705 0.525567 18.6137C-0.145241 17.9001 -0.145241 16.7702 0.525567 16.116L15.1156 0.535219C15.7864 -0.178406 16.8485 -0.178406 17.4635 0.535219C18.1343 1.24884 18.1343 2.37875 17.4635 3.03291L2.87339 18.6137C2.53799 18.9705 2.14668 19.1489 1.69948 19.1489Z" fill="#FF9626"/>
</svg>
