<svg width="59" height="59" viewBox="0 0 59 59" fill="none" xmlns="http://www.w3.org/2000/svg">
<path d="M29.3337 44.3912C27.6715 44.3912 26.4004 43.1201 26.4004 41.4579V17.1112C26.4004 15.449 27.6715 14.1779 29.3337 14.1779C30.9959 14.1779 32.2671 15.449 32.2671 17.1112V41.4579C32.2671 43.1201 30.9959 44.3912 29.3337 44.3912Z" fill="#39629C"/>
<path d="M41.5554 32.2667C40.7732 32.2667 40.0887 31.9734 39.5021 31.3867L29.3332 21.3156L19.2621 31.3867C18.0887 32.5601 16.2309 32.5601 15.1554 31.3867C13.9821 30.2134 13.9821 28.3556 15.1554 27.2801L27.3776 15.0579C28.5509 13.8845 30.4087 13.8845 31.4843 15.0579L43.7065 27.2801C44.8798 28.4534 44.8798 30.3112 43.7065 31.3867C43.0221 31.9734 42.2398 32.2667 41.5554 32.2667Z" fill="#39629C"/>
<path d="M29.3333 58.6667C13.2 58.6667 0 45.4667 0 29.3333C0 13.2 13.2 0 29.3333 0C45.4667 0 58.6667 13.2 58.6667 29.3333C58.6667 45.4667 45.4667 58.6667 29.3333 58.6667ZM29.3333 5.86667C16.4267 5.86667 5.86667 16.4267 5.86667 29.3333C5.86667 42.24 16.4267 52.8 29.3333 52.8C42.24 52.8 52.8 42.24 52.8 29.3333C52.8 16.4267 42.24 5.86667 29.3333 5.86667Z" fill="#39629C"/>
</svg>
